<svg width="150" height="40" viewBox="0 0 150 40" fill="none" xmlns="http://www.w3.org/2000/svg">
<path d="M128.122 2.72606C131.153 1.03197 134.847 1.03197 137.878 2.72606L144.878 6.63783C148.041 8.40508 150 11.7445 150 15.3673V22.6327C150 26.2555 148.041 29.5949 144.878 31.3622L137.878 35.2739C134.847 36.968 131.153 36.968 128.122 35.2739L121.122 31.3622C117.959 29.5949 116 26.2555 116 22.6327V15.3673C116 11.7445 117.959 8.40508 121.122 6.63783L128.122 2.72606Z" fill="url(#paint0_linear_36300_1498)"/>
<path d="M128.133 15.2109C128.133 14.2734 128.367 13.4492 128.836 12.7383C129.305 12.0195 129.922 11.4609 130.688 11.0625C131.453 10.6562 132.285 10.4531 133.184 10.4531C133.902 10.4531 134.633 10.6016 135.375 10.8984C136.125 11.1953 136.832 11.668 137.496 12.3164L135.938 15.2227C135.469 14.7852 135.004 14.4727 134.543 14.2852C134.09 14.0898 133.668 13.9922 133.277 13.9922C132.738 13.9922 132.289 14.1211 131.93 14.3789C131.578 14.6289 131.402 14.9141 131.402 15.2344C131.402 15.5469 131.52 15.8281 131.754 16.0781C131.988 16.3281 132.281 16.582 132.633 16.8398C132.984 17.0977 133.332 17.4023 133.676 17.7539C134.027 18.0977 134.32 18.5234 134.555 19.0312C134.789 19.5391 134.906 20.168 134.906 20.918V21.1523H131.52V20.9414C131.52 20.4727 131.438 20.0938 131.273 19.8047C131.109 19.5078 130.898 19.2578 130.641 19.0547C130.383 18.8438 130.109 18.6445 129.82 18.457C129.539 18.2617 129.27 18.0352 129.012 17.7773C128.754 17.5117 128.543 17.1758 128.379 16.7695C128.215 16.3633 128.133 15.8438 128.133 15.2109ZM130.934 24.832C130.934 24.207 131.156 23.6914 131.602 23.2852C132.047 22.8789 132.582 22.6758 133.207 22.6758C133.832 22.6758 134.363 22.8789 134.801 23.2852C135.246 23.6914 135.469 24.207 135.469 24.832C135.469 25.4492 135.246 25.9648 134.801 26.3789C134.363 26.7852 133.832 26.9883 133.207 26.9883C132.566 26.9883 132.027 26.7852 131.59 26.3789C131.152 25.9648 130.934 25.4492 130.934 24.832Z" fill="white"/>
<path d="M1.5 12.1758C1.5 11.2539 1.73047 10.4453 2.19141 9.75C2.65234 9.05469 3.25781 8.51172 4.00781 8.12109C4.75781 7.73047 5.57422 7.53516 6.45703 7.53516C7.15234 7.53516 7.85938 7.67578 8.57812 7.95703C9.30469 8.23828 9.98828 8.6875 10.6289 9.30469L9.17578 12.0117C8.72266 11.5977 8.26953 11.3008 7.81641 11.1211C7.37109 10.9414 6.94922 10.8516 6.55078 10.8516C5.99609 10.8516 5.52734 10.9844 5.14453 11.25C4.76953 11.5156 4.58203 11.832 4.58203 12.1992C4.58203 12.5195 4.69922 12.8086 4.93359 13.0664C5.16797 13.3242 5.45703 13.5859 5.80078 13.8516C6.15234 14.1172 6.5 14.4297 6.84375 14.7891C7.19531 15.1406 7.48438 15.5742 7.71094 16.0898C7.94531 16.6055 8.0625 17.2422 8.0625 18V18.2695H4.91016V18.0117C4.91016 17.5195 4.82812 17.1172 4.66406 16.8047C4.5 16.4922 4.28516 16.2266 4.01953 16.0078C3.76172 15.7812 3.48828 15.5703 3.19922 15.375C2.91797 15.1719 2.64453 14.9414 2.37891 14.6836C2.12109 14.418 1.91016 14.0859 1.74609 13.6875C1.58203 13.2891 1.5 12.7852 1.5 12.1758ZM4.32422 21.9258C4.32422 21.332 4.53516 20.8398 4.95703 20.4492C5.37891 20.0586 5.88672 19.8633 6.48047 19.8633C7.07422 19.8633 7.57812 20.0586 7.99219 20.4492C8.41406 20.8398 8.625 21.332 8.625 21.9258C8.625 22.5117 8.41406 23.0039 7.99219 23.4023C7.57812 23.793 7.07422 23.9883 6.48047 23.9883C5.87109 23.9883 5.35938 23.793 4.94531 23.4023C4.53125 23.0117 4.32422 22.5195 4.32422 21.9258ZM82.0664 7.57031V23.9883H78.9023V7.57031H82.0664ZM91.5117 24C91.168 24 90.8438 23.9648 90.5391 23.8945C90.2344 23.8164 89.9727 23.7148 89.7539 23.5898C89.5508 24.7852 89.1406 25.8477 88.5234 26.7773C87.9062 27.707 87.0977 28.4766 86.0977 29.0859C85.0977 29.6953 83.918 30.1289 82.5586 30.3867L81.3984 27.2578C82.5312 27.0156 83.5078 26.6953 84.3281 26.2969C85.1484 25.8984 85.7773 25.3594 86.2148 24.6797C86.6602 24.0078 86.8828 23.1406 86.8828 22.0781C86.8828 21.375 86.7695 20.5781 86.543 19.6875C86.3164 18.7969 86.0742 17.9688 85.8164 17.2031L88.9688 16.1836L89.6484 18.832C89.7812 19.3398 89.9766 19.7656 90.2344 20.1094C90.4922 20.4453 90.875 20.6133 91.3828 20.6133H91.8398V24H91.5117ZM99.4219 28.1602L101.309 30.0469L99.4219 31.9336L97.5352 30.0469L99.4219 28.1602ZM101.473 25.1602L103.359 27.0469L101.473 28.9336L99.5859 27.0469L101.473 25.1602ZM97.3828 25.1602L99.2695 27.0469L97.3828 28.9336L95.4961 27.0469L97.3828 25.1602ZM91.3828 20.6133H93.375C94.1328 20.6133 94.8438 20.5586 95.5078 20.4492C96.1797 20.3398 96.8438 20.1797 97.5 19.9688C98.1641 19.75 98.8594 19.4805 99.5859 19.1602C100.32 18.8398 101.125 18.4648 102 18.0352C101.398 17.8086 100.855 17.6016 100.371 17.4141C99.8867 17.2266 99.457 17.0664 99.082 16.9336C98.7148 16.793 98.4023 16.6836 98.1445 16.6055C97.8945 16.5195 97.6992 16.4766 97.5586 16.4766C97.1367 16.4766 96.7539 16.6094 96.4102 16.875C96.0742 17.1328 95.7969 17.4062 95.5781 17.6953L94.957 18.4805L92.332 17.1914L92.8594 16.3477C93.4062 15.4414 94.0664 14.6914 94.8398 14.0977C95.6211 13.4961 96.5312 13.1953 97.5703 13.1953C98.0078 13.1953 98.5156 13.2969 99.0938 13.5C99.6719 13.7031 100.297 13.957 100.969 14.2617C101.648 14.5586 102.344 14.8594 103.055 15.1641C103.766 15.4688 104.469 15.7266 105.164 15.9375C105.867 16.1406 106.539 16.2461 107.18 16.2539V19.3594C106.586 19.4375 106.035 19.5703 105.527 19.7578C105.027 19.9375 104.5 20.1719 103.945 20.4609C103.391 20.7422 102.754 21.0742 102.035 21.457C101.035 21.9883 100.09 22.4453 99.1992 22.8281C98.3086 23.2031 97.3984 23.4922 96.4688 23.6953C95.5391 23.8984 94.4961 24 93.3398 24H91.3828V20.6133Z" fill="#282828"/>
<path d="M22.6172 14.3086C23.3594 14.3086 24.0156 14.4766 24.5859 14.8125C25.1562 15.1484 25.6406 15.6133 26.0391 16.207C26.4453 16.793 26.7656 17.4648 27 18.2227C27.2344 18.9805 27.3828 19.7773 27.4453 20.6133H28.3242V24H27.2109C26.9141 25.1875 26.4258 26.2031 25.7461 27.0469C25.0742 27.8906 24.1992 28.5859 23.1211 29.1328C22.043 29.6797 20.75 30.0977 19.2422 30.3867L18.082 27.2578C19.0664 27.0625 19.9766 26.8086 20.8125 26.4961C21.6562 26.1914 22.3672 25.8281 22.9453 25.4062C23.5312 24.9844 23.9219 24.5156 24.1172 24H23.0156C21.4453 24 20.2422 23.6719 19.4062 23.0156C18.5781 22.3516 18.1641 21.2812 18.1641 19.8047C18.1641 19.2266 18.2539 18.6211 18.4336 17.9883C18.6133 17.3477 18.8867 16.75 19.2539 16.1953C19.6211 15.6328 20.082 15.1797 20.6367 14.8359C21.1992 14.4844 21.8594 14.3086 22.6172 14.3086ZM23.0039 20.6133H24.5039C24.4727 20.2773 24.4141 19.9375 24.3281 19.5938C24.2422 19.25 24.125 18.9297 23.9766 18.6328C23.8281 18.3359 23.6406 18.0977 23.4141 17.918C23.1875 17.7305 22.9141 17.6367 22.5938 17.6367C22.2266 17.6367 21.9336 17.7539 21.7148 17.9883C21.5039 18.2148 21.3516 18.4883 21.2578 18.8086C21.1719 19.1211 21.1289 19.4102 21.1289 19.6758C21.1289 20.0898 21.3008 20.3516 21.6445 20.4609C21.9961 20.5625 22.4492 20.6133 23.0039 20.6133ZM31.1367 15.9492L34.0664 15.5859L34.3008 18.9375C34.3242 19.3281 34.4023 19.6484 34.5352 19.8984C34.6758 20.1484 34.8789 20.332 35.1445 20.4492C35.4102 20.5586 35.7539 20.6133 36.1758 20.6133H36.4219V24H36.1523C35.6367 24 35.168 23.9375 34.7461 23.8125C34.3242 23.6797 33.9492 23.5 33.6211 23.2734C33.293 23.0469 33.0078 22.7812 32.7656 22.4766C32.2969 22.9531 31.7344 23.3281 31.0781 23.6016C30.4219 23.8672 29.7266 24 28.9922 24H27.8672V20.6133H28.9922C29.8516 20.6133 30.4414 20.4688 30.7617 20.1797C31.0898 19.8828 31.2539 19.3438 31.2539 18.5625C31.2539 18.1094 31.2422 17.6641 31.2188 17.2266C31.1953 16.7891 31.168 16.3633 31.1367 15.9492ZM31.7812 9.73828L33.8906 11.8477L31.7812 13.9453L29.6836 11.8477L31.7812 9.73828ZM35.9297 20.6133H36.8672V24H35.9297V20.6133ZM40.1953 25.5L42.1992 27.4922L40.1953 29.5078L38.1914 27.4922L40.1953 25.5ZM36.2344 25.5L38.25 27.4922L36.2344 29.5078L34.2422 27.4922L36.2344 25.5ZM38.4492 24H36.5859V20.6133H38.4609C39.0547 20.6133 39.4609 20.4297 39.6797 20.0625C39.9062 19.6875 40.0195 19.2148 40.0195 18.6445C40.0195 18.1211 39.9531 17.543 39.8203 16.9102C39.6953 16.2773 39.5664 15.6602 39.4336 15.0586L42.5039 14.2617C42.6523 15.0039 42.7695 15.7344 42.8555 16.4531C42.9492 17.1719 42.9961 17.8594 42.9961 18.5156C42.9961 19.5625 42.8555 20.5 42.5742 21.3281C42.3008 22.1484 41.832 22.8008 41.168 23.2852C40.5117 23.7617 39.6055 24 38.4492 24ZM44.5312 30.3984L43.3359 27.2578C44.4688 27.0156 45.4453 26.6953 46.2656 26.2969C47.0859 25.8984 47.7148 25.3594 48.1523 24.6797C48.5977 24.0078 48.8203 23.1406 48.8203 22.0781C48.8203 21.375 48.707 20.5781 48.4805 19.6875C48.2539 18.7969 48.0117 17.9688 47.7539 17.2031L50.918 16.1836C51.2227 17.043 51.4531 17.9648 51.6094 18.9492C51.7734 19.9258 51.8555 20.8672 51.8555 21.7734C51.8555 23.4141 51.5508 24.8203 50.9414 25.9922C50.3398 27.1719 49.4883 28.125 48.3867 28.8516C47.293 29.5859 46.0078 30.1016 44.5312 30.3984ZM58.1953 14.3086C58.9375 14.3086 59.5938 14.4766 60.1641 14.8125C60.7344 15.1484 61.2188 15.6133 61.6172 16.207C62.0234 16.793 62.3438 17.4648 62.5781 18.2227C62.8125 18.9805 62.9609 19.7773 63.0234 20.6133H63.9023V24H62.7891C62.4922 25.1875 62.0039 26.2031 61.3242 27.0469C60.6523 27.8906 59.7773 28.5859 58.6992 29.1328C57.6211 29.6797 56.3281 30.0977 54.8203 30.3867L53.6602 27.2578C54.6445 27.0625 55.5547 26.8086 56.3906 26.4961C57.2344 26.1914 57.9453 25.8281 58.5234 25.4062C59.1094 24.9844 59.5 24.5156 59.6953 24H58.5938C57.0234 24 55.8203 23.6719 54.9844 23.0156C54.1562 22.3516 53.7422 21.2812 53.7422 19.8047C53.7422 19.2266 53.832 18.6211 54.0117 17.9883C54.1914 17.3477 54.4648 16.75 54.832 16.1953C55.1992 15.6328 55.6602 15.1797 56.2148 14.8359C56.7773 14.4844 57.4375 14.3086 58.1953 14.3086ZM58.582 20.6133H60.082C60.0508 20.2773 59.9922 19.9375 59.9062 19.5938C59.8203 19.25 59.7031 18.9297 59.5547 18.6328C59.4062 18.3359 59.2188 18.0977 58.9922 17.918C58.7656 17.7305 58.4922 17.6367 58.1719 17.6367C57.8047 17.6367 57.5117 17.7539 57.293 17.9883C57.082 18.2148 56.9297 18.4883 56.8359 18.8086C56.75 19.1211 56.707 19.4102 56.707 19.6758C56.707 20.0898 56.8789 20.3516 57.2227 20.4609C57.5742 20.5625 58.0273 20.6133 58.582 20.6133ZM63.4453 20.6133H64.2773V24H63.4453V20.6133ZM68.6367 8.83594L70.6406 10.8281L68.6367 12.8438L66.6328 10.8281L68.6367 8.83594ZM64.6758 8.83594L66.6914 10.8281L64.6758 12.8438L62.6836 10.8281L64.6758 8.83594ZM65.8242 24H63.9609V20.6133H65.8359C66.4297 20.6133 66.8359 20.4297 67.0547 20.0625C67.2812 19.6875 67.3945 19.2148 67.3945 18.6445C67.3945 18.1211 67.3281 17.543 67.1953 16.9102C67.0703 16.2773 66.9414 15.6602 66.8086 15.0586L69.8789 14.2617C70.0273 15.0039 70.1445 15.7344 70.2305 16.4531C70.3242 17.1719 70.3711 17.8594 70.3711 18.5156C70.3711 19.5625 70.2305 20.5 69.9492 21.3281C69.6758 22.1484 69.207 22.8008 68.543 23.2852C67.8867 23.7617 66.9805 24 65.8242 24Z" fill="#28A745"/>
<defs>
<linearGradient id="paint0_linear_36300_1498" x1="133" y1="0" x2="133" y2="38" gradientUnits="userSpaceOnUse">
<stop stop-color="#28A745"/>
<stop offset="1" stop-color="#10411B"/>
</linearGradient>
</defs>
</svg>
